# File created by Blade
# Date/Time:  Wed Sep 24 20:15:16 2014
# Frame Rate: 120.000 fps
#------------------------------------------------------
:FULLY-SPECIFIED
:DEGREES
1175
root -6.561455 32.766334 -5.587319 16.207510 7.234570 -2.064130
Spine -20.319247 12.049065 -2.928394
Head -8.970209 -28.156475 21.258369
LeftShoulder -3.227980 17.671956 10.670969
LeftArm 25.627311 38.002845 -69.196113
LeftForeArm -0.566867 -0.000000 21.863719
LeftHand -22.087775 -0.000000 -6.346735
LeftHandThumb1 -26.253704 0.000000 33.147579
RightShoulder -12.615305 13.968415 -13.646983
RightArm 12.262180 -69.010342 90.481608
RightForeArm 17.309731 -0.000000 80.652025
RightHand -2.918768 -0.000000 41.640737
RightHandThumb1 -24.326973 -0.000000 -32.862282
LeftUpLeg -15.350098 4.273993 5.879272
LeftLeg 1.262418 -0.000000 -0.000000
LeftFoot -10.601909 5.881239 -18.361460
LeftToeBase 9.672268 -0.000000 -0.000000
RightUpLeg -14.418615 -8.640323 0.920049
RightLeg 3.577591 -0.000000 -0.000000
RightFoot -8.592118 -4.624335 -13.474291
RightToeBase 0.581118 -0.000000 -0.000000
1176
root -6.560382 32.766534 -5.593135 16.213119 7.209422 -2.063975
Spine -20.314836 12.029925 -2.908540
Head -8.981841 -28.143632 21.261126
LeftShoulder -3.241532 17.670527 10.668568
LeftArm 25.655839 38.022264 -69.183540
LeftForeArm -0.586950 0.000000 21.825743
LeftHand -22.088431 -0.000000 -6.411149
LeftHandThumb1 -26.253704 0.000000 33.147579
RightShoulder -12.598395 13.981287 -13.679631
RightArm 11.933573 -68.789439 90.749757
RightForeArm 17.284987 0.000000 80.734224
RightHand -3.042237 -0.000000 40.963685
RightHandThumb1 -24.326973 -0.000000 -32.862282
LeftUpLeg -15.369954 4.278277 5.873398
LeftLeg 1.283562 -0.000000 -0.000000
LeftFoot -10.610206 5.893312 -18.375407
LeftToeBase 9.708127 -0.000000 -0.000000
RightUpLeg -14.444828 -8.606647 0.910316
RightLeg 3.593009 -0.000000 -0.000000
RightFoot -8.584626 -4.632518 -13.474327
RightToeBase 0.555179 -0.000000 -0.000000
1177
root -6.558800 32.766956 -5.597498 16.207964 7.186174 -2.066030
Spine -20.300103 12.017208 -2.890082
Head -9.017216 -28.131922 21.300348
LeftShoulder -3.245683 17.657771 10.671420
LeftArm 25.658724 38.043185 -69.196766
LeftForeArm -0.614968 -0.000000 21.792942
LeftHand -22.081793 -0.000000 -6.370139
LeftHandThumb1 -26.253704 0.000000 33.147579
RightShoulder -12.662593 13.962057 -13.605255
RightArm 11.623357 -68.424517 91.057969
RightForeArm 16.961709 -0.000000 80.643934
RightHand -2.900203 -0.000000 40.712796
RightHandThumb1 -24.326973 -0.000000 -32.862282
LeftUpLeg -15.372506 4.286627 5.869107
LeftLeg 1.294243 -0.000000 -0.000000
LeftFoot -10.611652 5.904709 -18.370459
LeftToeBase 9.660572 -0.000000 -0.000000
RightUpLeg -14.454025 -8.587984 0.902916
RightLeg 3.604022 -0.000000 -0.000000
RightFoot -8.575480 -4.626700 -13.470782
RightToeBase 0.524894 -0.000000 -0.000000
1178
root -6.558080 32.766715 -5.601271 16.200143 7.165152 -2.070515
Spine -20.282509 11.990036 -2.860064
Head -9.030895 -28.118644 21.312607
LeftShoulder -3.249876 17.657593 10.677486
LeftArm 25.652022 38.042590 -69.219938
LeftForeArm -0.590166 -0.000000 21.770657
LeftHand -22.076493 -0.000000 -6.407117
LeftHandThumb1 -26.253704 0.000000 33.147579
RightShoulder -12.677523 13.953158 -13.581576
RightArm 11.226793 -68.076499 91.422072
RightForeArm 17.006154 -0.000000 80.641397
RightHand -2.983370 -0.000000 40.262063
RightHandThumb1 -24.326973 -0.000000 -32.862282
LeftUpLeg -15.371827 4.296559 5.868801
LeftLeg 1.304887 -0.000000 -0.000000
LeftFoot -10.645297 5.907360 -18.422869
LeftToeBase 9.725284 -0.000000 -0.000000
RightUpLeg -14.454770 -8.555536 0.896229
RightLeg 3.603249 -0.000000 -0.000000
RightFoot -8.570200 -4.630977 -13.447299
RightToeBase 0.521754 -0.000000 -0.000000
1179
root -6.556872 32.766778 -5.603128 16.178608 7.145384 -2.073747
Spine -20.254131 11.967224 -2.830329
Head -9.044179 -28.105805 21.333477
LeftShoulder -3.247064 17.655301 10.674772
LeftArm 25.651717 38.068501 -69.217071
LeftForeArm -0.478121 -0.000000 21.745070
LeftHand -22.109571 -0.000000 -7.004262
LeftHandThumb1 -26.253704 0.000000 33.147579
RightShoulder -12.691498 13.947842 -13.574616
RightArm 10.851673 -67.732370 91.757172
RightForeArm 16.847305 -0.000000 80.640686
RightHand -2.890030 -0.000000 39.590023
RightHandThumb1 -24.326973 -0.000000 -32.862282
LeftUpLeg -15.353028 4.305291 5.865531
LeftLeg 1.309969 -0.000000 -0.000000
LeftFoot -10.639781 5.932400 -18.376891
LeftToeBase 9.663571 -0.000000 -0.000000
RightUpLeg -14.440998 -8.555866 0.893112
RightLeg 3.605434 -0.000000 -0.000000
RightFoot -8.567658 -4.607341 -13.463671
RightToeBase 0.506828 -0.000000 -0.000000
1180
root -6.556578 32.766746 -5.607880 16.177409 7.125135 -2.084561
Spine -20.244877 11.940754 -2.794855
Head -9.050338 -28.082474 21.347928
LeftShoulder -3.258411 17.656813 10.679283
LeftArm 25.644200 38.065237 -69.236189
LeftForeArm -0.494564 0.000000 21.735316
LeftHand -22.123247 -0.000000 -7.107895
LeftHandThumb1 -26.253704 0.000000 33.147579
RightShoulder -12.680893 13.936356 -13.541742
RightArm 10.395606 -67.304728 92.140024
RightForeArm 16.924343 -0.000000 80.663917
RightHand -2.814946 0.000000 39.137731
RightHandThumb1 -24.326973 -0.000000 -32.862282
LeftUpLeg -15.363723 4.317418 5.870459
LeftLeg 1.324450 -0.000000 -0.000000
LeftFoot -10.657623 5.949809 -18.353752
LeftToeBase 9.693140 -0.000000 -0.000000
RightUpLeg -14.455408 -8.526154 0.896948
RightLeg 3.613659 -0.000000 -0.000000
RightFoot -8.555637 -4.606917 -13.475254
RightToeBase 0.515080 -0.000000 -0.000000
